<svg height="512pt" viewBox="0 -11 512 512" width="512pt" xmlns="http://www.w3.org/2000/svg"><path d="m500.492188 245c0 135.308594-109.6875 245-245 245-135.308594 0-245-109.691406-245-245s109.691406-245 245-245c135.3125 0 245 109.691406 245 245zm0 0" fill="#fdd33a"/><path d="m494.34375 178.25h-476.6875c-9.753906 0-17.65625 7.90625-17.65625 17.65625v1.175781c0 9.753907 7.902344 17.65625 17.65625 17.65625h4.53125l39.460938 180.089844c19.78125 25.550781 44.492187 47.085937 72.714843 63.171875h242.257813c27.5625-15.707031 51.78125-36.605469 71.320312-61.371094l39.855469-181.890625h6.546875c9.75 0 17.65625-7.902343 17.65625-17.652343v-1.179688c0-9.75-7.902344-17.65625-17.65625-17.65625zm0 0" fill="#ef3a50"/><path d="m494.34375 178.25h-476.6875c-9.753906 0-17.65625 7.90625-17.65625 17.65625v1.175781c0 9.753907 7.902344 17.65625 17.65625 17.65625h4.53125l39.460938 180.089844c12.242187 15.8125 26.375 30.082031 42.0625 42.480469l-37.226563-190.359375c-2.121094-10.855469 6.191406-20.949219 17.25-20.949219h401.59375l2.46875-11.261719h6.546875c9.753906 0 17.65625-7.902343 17.65625-17.65625v-1.175781c0-9.75-7.902344-17.65625-17.65625-17.65625zm0 0" fill="#ce2844"/><path d="m215.351562 53.523438c4.988282-6.957032 3.390626-16.640626-3.566406-21.625-6.957031-4.988282-16.640625-3.390626-21.628906 3.566406l-106.671875 148.785156h38.144531zm0 0" fill="#6843af"/><path d="m320.03125 35.464844c-4.988281-6.957032-14.671875-8.554688-21.628906-3.566406-6.957032 4.988281-8.550782 14.667968-3.5625 21.625l93.71875 130.726562h38.144531zm0 0" fill="#6843af"/><path d="m213.117188 32.976562c-.421876-.378906-.863282-.742187-1.335938-1.078124-6.957031-4.988282-16.640625-3.390626-21.625 3.566406l-106.671875 148.785156h38.144531l24.554688-34.25c-7.242188 0-11.449219-8.191406-7.230469-14.078125l72.203125-100.710937c.589844-.824219 1.25-1.566407 1.960938-2.234376zm0 0" fill="#50309e"/><path d="m388.558594 184.25h38.144531l-24.554687-34.25h-38.144532zm0 0" fill="#50309e"/><path d="m494.34375 214.738281h-476.6875c-9.753906 0-17.65625-7.902343-17.65625-17.65625v-1.175781c0-9.75 7.902344-17.65625 17.65625-17.65625h476.6875c9.753906 0 17.65625 7.90625 17.65625 17.65625v1.175781c0 9.753907-7.902344 17.65625-17.65625 17.65625zm0 0" fill="#6843af"/><path d="m60 197.082031v-1.175781c0-9.75 7.902344-17.65625 17.65625-17.65625h-60c-9.753906 0-17.65625 7.90625-17.65625 17.65625v1.175781c0 9.753907 7.902344 17.65625 17.65625 17.65625h60c-9.753906 0-17.65625-7.902343-17.65625-17.65625zm0 0" fill="#50309e"/><path d="m357.820312 336.980469c0 55.410156-44.917968 100.328125-100.328124 100.328125-55.410157 0-100.328126-44.917969-100.328126-100.328125 0-55.410157 44.917969-100.328125 100.328126-100.328125 55.410156 0 100.328124 44.917968 100.328124 100.328125zm0 0" fill="#ce2844"/><path d="m346.351562 336.980469c0 49.078125-39.785156 88.859375-88.859374 88.859375-49.078126 0-88.859376-39.78125-88.859376-88.859375 0-49.074219 39.78125-88.859375 88.859376-88.859375 49.074218 0 88.859374 39.785156 88.859374 88.859375zm0 0" fill="#46cec3"/><path d="m228.105469 379.285156c-3.695313.464844-7.5-1.164062-9.652344-4.496094l-25.449219-39.398437c-2.996094-4.640625-1.664062-10.832031 2.976563-13.828125 4.636719-2.996094 10.828125-1.664062 13.824219 2.972656l20.121093 31.148438 70.195313-43.582032c4.6875-2.914062 10.855468-1.472656 13.769531 3.21875 2.914063 4.695313 1.472656 10.859376-3.21875 13.773438l-78.542969 48.761719c-1.261718.789062-2.636718 1.257812-4.023437 1.429687zm0 0" fill="#fff"/></svg>