<svg height="512pt" viewBox="0 -11 512 512" width="512pt" xmlns="http://www.w3.org/2000/svg"><path d="m500.492188 245c0 135.308594-109.6875 245-245 245-135.308594 0-245-109.691406-245-245s109.691406-245 245-245c135.3125 0 245 109.691406 245 245zm0 0" fill="#fdd33a"/><path d="m494.34375 178.25h-476.6875c-9.753906 0-17.65625 7.90625-17.65625 17.65625v1.175781c0 9.753907 7.902344 17.65625 17.65625 17.65625h4.53125l39.460938 180.089844c19.78125 25.550781 44.492187 47.085937 72.714843 63.171875h242.257813c27.5625-15.707031 51.78125-36.605469 71.320312-61.371094l39.855469-181.890625h6.546875c9.75 0 17.65625-7.902343 17.65625-17.652343v-1.179688c0-9.75-7.902344-17.65625-17.65625-17.65625zm0 0" fill="#ef3a50"/><path d="m494.34375 178.25h-476.6875c-9.753906 0-17.65625 7.90625-17.65625 17.65625v1.175781c0 9.753907 7.902344 17.65625 17.65625 17.65625h4.53125l39.460938 180.089844c12.242187 15.8125 26.375 30.082031 42.0625 42.480469l-37.226563-190.359375c-2.121094-10.855469 6.191406-20.949219 17.25-20.949219h401.59375l2.46875-11.261719h6.546875c9.753906 0 17.65625-7.902343 17.65625-17.65625v-1.175781c0-9.75-7.902344-17.65625-17.65625-17.65625zm0 0" fill="#ce2844"/><path d="m215.351562 53.523438c4.988282-6.957032 3.390626-16.640626-3.566406-21.625-6.957031-4.988282-16.640625-3.390626-21.628906 3.566406l-106.671875 148.785156h38.144531zm0 0" fill="#6843af"/><path d="m320.03125 35.464844c-4.988281-6.957032-14.671875-8.554688-21.628906-3.566406-6.957032 4.988281-8.550782 14.667968-3.5625 21.625l93.71875 130.726562h38.144531zm0 0" fill="#6843af"/><path d="m213.117188 32.976562c-.421876-.378906-.863282-.742187-1.335938-1.078124-6.957031-4.988282-16.640625-3.390626-21.625 3.566406l-106.671875 148.785156h38.144531l24.554688-34.25c-7.242188 0-11.449219-8.191406-7.230469-14.078125l72.203125-100.710937c.589844-.824219 1.25-1.566407 1.960938-2.234376zm0 0" fill="#50309e"/><path d="m388.558594 184.25h38.144531l-24.554687-34.25h-38.144532zm0 0" fill="#50309e"/><path d="m494.34375 214.738281h-476.6875c-9.753906 0-17.65625-7.902343-17.65625-17.65625v-1.175781c0-9.75 7.902344-17.65625 17.65625-17.65625h476.6875c9.753906 0 17.65625 7.90625 17.65625 17.65625v1.175781c0 9.753907-7.902344 17.65625-17.65625 17.65625zm0 0" fill="#6843af"/><path d="m60 197.082031v-1.175781c0-9.75 7.902344-17.65625 17.65625-17.65625h-60c-9.753906 0-17.65625 7.90625-17.65625 17.65625v1.175781c0 9.753907 7.902344 17.65625 17.65625 17.65625h60c-9.753906 0-17.65625-7.902343-17.65625-17.65625zm0 0" fill="#50309e"/><g fill="#ce2844"><path d="m135.234375 406.484375c-7.589844 1.476563-14.9375-3.480469-16.414063-11.070313l-26.140624-134.484374c-1.476563-7.589844 3.480468-14.9375 11.070312-16.414063s14.9375 3.480469 16.414062 11.070313l26.140626 134.484374c1.476562 7.589844-3.480469 14.9375-11.070313 16.414063zm0 0"/><path d="m196.363281 407.242188c-7.660156.738281-14.46875-4.875-15.207031-12.535157l-13.070312-135.742187c-.738282-7.660156 4.875-14.46875 12.535156-15.207032 7.660156-.738281 14.46875 4.875 15.207031 12.535157l13.070313 135.742187c.738281 7.660156-4.875 14.46875-12.535157 15.207032zm0 0"/><path d="m385.75 406.484375c-7.589844-1.476563-12.546875-8.824219-11.070312-16.414063l26.140624-134.484374c1.476563-7.589844 8.824219-12.546876 16.414063-11.070313s12.546875 8.824219 11.070313 16.414063l-26.140626 134.484374c-1.472656 7.589844-8.824218 12.546876-16.414062 11.070313zm0 0"/><path d="m321.621094 407.242188c-7.660156-.738282-13.273438-7.546876-12.535156-15.207032l13.070312-135.742187c.738281-7.660157 7.546875-13.273438 15.207031-12.535157 7.660157.738282 13.273438 7.546876 12.535157 15.207032l-13.070313 135.742187c-.738281 7.660157-7.546875 13.273438-15.207031 12.535157zm0 0"/><path d="m257.492188 408c-7.730469 0-14-6.269531-14-14v-137c0-7.730469 6.269531-14 14-14 7.734374 0 14 6.269531 14 14v137c0 7.730469-6.269532 14-14 14zm0 0"/></g></svg>